<svg xmlns="http://www.w3.org/2000/svg" viewBox="0 0 240 140" role="img" aria-label="Doodle showing greenhouse gas emissions"><g fill="none" stroke="#111" stroke-width="4" stroke-linecap="round" stroke-linejoin="round"><path d="M24 112h192M45 112V67h30v45M91 112V48h31v64M139 112V32h30v80"/><path d="M51 67V52M98 48V31M146 32V17"/><path d="M44 42q18-22 37 0M91 23q20-25 40 0M139 9q19-17 38 0"/><path d="M188 33v65"/><path d="M178 88l10 10 10-10"/></g><path d="M36 25q-11 8 0 16q11 8 0 16M61 22q-11 8 0 16q11 8 0 16" fill="none" stroke="#8056b5" stroke-width="6"/><text x="120" y="135" text-anchor="middle" font-family="Bradley Hand, Segoe Print, cursive" font-size="14" fill="#f3b4cc">a turning point</text></svg>