<svg xmlns="http://www.w3.org/2000/svg" viewBox="0 0 240 140" role="img" aria-label="Doodle of the 8086 processor"><g fill="none" stroke="#111" stroke-width="4" stroke-linecap="round" stroke-linejoin="round"><rect x="58" y="33" width="124" height="74" rx="7" fill="#88c8c7"/><path d="M75 33V17M94 33V10M113 33V18M132 33V10M151 33V18M170 33V10M75 107v16M94 107v23M113 107v-16M132 107v23M151 107v-16M170 107v23M58 48H40M58 67H30M58 87H40M182 48h18M182 67h28M182 87h18"/><path d="M82 70h76M120 51v38"/><circle cx="120" cy="70" r="23"/></g><path d="M20 25l24 14-24 14M220 87l-24 14 24 14" fill="none" stroke="#8056b5" stroke-width="5"/><text x="120" y="135" text-anchor="middle" font-family="Bradley Hand, Segoe Print, cursive" font-size="14" fill="#f3b4cc">a new path</text></svg>